<mxfile host="Electron" modified="2023-05-20T12:17:14.638Z" agent="Mozilla/5.0 (Windows NT 10.0; Win64; x64) AppleWebKit/537.36 (KHTML, like Gecko) draw.io/21.2.8 Chrome/112.0.5615.165 Electron/24.2.0 Safari/537.36" etag="VWF2E9sdH7WjErRJ_SWO" version="21.2.8" type="device">
  <diagram name="Page-1" id="zzzi5T66cBKwi4Euccaa">
    <mxGraphModel dx="1886" dy="870" grid="1" gridSize="10" guides="1" tooltips="1" connect="1" arrows="1" fold="1" page="1" pageScale="1" pageWidth="1654" pageHeight="1169" math="0" shadow="0">
      <root>
        <mxCell id="0" />
        <mxCell id="1" parent="0" />
        <mxCell id="UxwvA4xGbJYqASf0uj5V-3" value="num_matches" style="ellipse;whiteSpace=wrap;html=1;align=center;direction=east;" parent="1" vertex="1">
          <mxGeometry x="180" y="200" width="90" height="30" as="geometry" />
        </mxCell>
        <mxCell id="UxwvA4xGbJYqASf0uj5V-8" value="" style="endArrow=none;html=1;rounded=0;entryX=0.5;entryY=1;entryDx=0;entryDy=0;exitX=0.5;exitY=0;exitDx=0;exitDy=0;" parent="1" target="UxwvA4xGbJYqASf0uj5V-3" edge="1">
          <mxGeometry relative="1" as="geometry">
            <mxPoint x="120" y="250" as="sourcePoint" />
            <mxPoint x="350" y="230" as="targetPoint" />
          </mxGeometry>
        </mxCell>
        <mxCell id="UxwvA4xGbJYqASf0uj5V-11" value="num_players" style="ellipse;whiteSpace=wrap;html=1;align=center;" parent="1" vertex="1">
          <mxGeometry x="120" y="820" width="100" height="40" as="geometry" />
        </mxCell>
        <mxCell id="UxwvA4xGbJYqASf0uj5V-17" value="" style="endArrow=none;html=1;rounded=0;exitX=0.5;exitY=1;exitDx=0;exitDy=0;" parent="1" target="UxwvA4xGbJYqASf0uj5V-11" edge="1">
          <mxGeometry relative="1" as="geometry">
            <mxPoint x="302.5000000000002" y="810" as="sourcePoint" />
            <mxPoint x="450" y="840" as="targetPoint" />
          </mxGeometry>
        </mxCell>
        <mxCell id="UxwvA4xGbJYqASf0uj5V-22" value="" style="endArrow=none;html=1;rounded=0;exitX=1;exitY=0.5;exitDx=0;exitDy=0;entryX=0;entryY=0.5;entryDx=0;entryDy=0;" parent="1" edge="1">
          <mxGeometry relative="1" as="geometry">
            <mxPoint x="285" y="465" as="sourcePoint" />
            <mxPoint x="330" y="510" as="targetPoint" />
          </mxGeometry>
        </mxCell>
        <mxCell id="UxwvA4xGbJYqASf0uj5V-23" value="points_limit" style="ellipse;whiteSpace=wrap;html=1;align=center;" parent="1" vertex="1">
          <mxGeometry x="210" y="490" width="80" height="30" as="geometry" />
        </mxCell>
        <mxCell id="UxwvA4xGbJYqASf0uj5V-24" value="image_url" style="ellipse;whiteSpace=wrap;html=1;align=center;" parent="1" vertex="1">
          <mxGeometry x="200" y="530" width="85" height="30" as="geometry" />
        </mxCell>
        <mxCell id="UxwvA4xGbJYqASf0uj5V-25" value="" style="endArrow=none;html=1;rounded=0;exitX=1;exitY=0.5;exitDx=0;exitDy=0;entryX=0;entryY=0.5;entryDx=0;entryDy=0;" parent="1" source="UxwvA4xGbJYqASf0uj5V-24" edge="1">
          <mxGeometry relative="1" as="geometry">
            <mxPoint x="450" y="530" as="sourcePoint" />
            <mxPoint x="330" y="510" as="targetPoint" />
          </mxGeometry>
        </mxCell>
        <mxCell id="UxwvA4xGbJYqASf0uj5V-26" value="" style="endArrow=none;html=1;rounded=0;exitX=1;exitY=0.5;exitDx=0;exitDy=0;" parent="1" source="UxwvA4xGbJYqASf0uj5V-23" edge="1">
          <mxGeometry relative="1" as="geometry">
            <mxPoint x="450" y="530" as="sourcePoint" />
            <mxPoint x="330" y="510" as="targetPoint" />
          </mxGeometry>
        </mxCell>
        <mxCell id="UxwvA4xGbJYqASf0uj5V-36" value="game" style="whiteSpace=wrap;html=1;align=center;" parent="1" vertex="1">
          <mxGeometry x="520" y="640" width="60" height="40" as="geometry" />
        </mxCell>
        <mxCell id="UxwvA4xGbJYqASf0uj5V-37" value="players" style="whiteSpace=wrap;html=1;align=center;" parent="1" vertex="1">
          <mxGeometry x="520" y="280" width="60" height="40" as="geometry" />
        </mxCell>
        <mxCell id="UxwvA4xGbJYqASf0uj5V-43" value="purchase_date" style="ellipse;whiteSpace=wrap;html=1;align=center;" parent="1" vertex="1">
          <mxGeometry x="430" y="460" width="90" height="30" as="geometry" />
        </mxCell>
        <mxCell id="UxwvA4xGbJYqASf0uj5V-47" value="" style="endArrow=none;html=1;rounded=0;exitX=1;exitY=1;exitDx=0;exitDy=0;entryX=0;entryY=0;entryDx=0;entryDy=0;" parent="1" target="7KpUTXHC7Jx4lpWlZY0v-66" edge="1">
          <mxGeometry relative="1" as="geometry">
            <mxPoint x="498.06980515339455" y="485.6066017177982" as="sourcePoint" />
            <mxPoint x="506.25" y="490" as="targetPoint" />
          </mxGeometry>
        </mxCell>
        <mxCell id="UxwvA4xGbJYqASf0uj5V-52" value="url" style="ellipse;whiteSpace=wrap;html=1;align=center;" parent="1" vertex="1">
          <mxGeometry x="460" y="687.5" width="50" height="30" as="geometry" />
        </mxCell>
        <mxCell id="UxwvA4xGbJYqASf0uj5V-56" value="name" style="ellipse;whiteSpace=wrap;html=1;align=center;strokeWidth=1;" parent="1" vertex="1">
          <mxGeometry x="600" y="682.5" width="60" height="35" as="geometry" />
        </mxCell>
        <mxCell id="UxwvA4xGbJYqASf0uj5V-57" style="edgeStyle=orthogonalEdgeStyle;rounded=0;orthogonalLoop=1;jettySize=auto;html=1;exitX=0.5;exitY=1;exitDx=0;exitDy=0;" parent="1" edge="1">
          <mxGeometry relative="1" as="geometry">
            <mxPoint x="515" y="750" as="sourcePoint" />
            <mxPoint x="515" y="750" as="targetPoint" />
          </mxGeometry>
        </mxCell>
        <mxCell id="UxwvA4xGbJYqASf0uj5V-60" value="reference" style="ellipse;whiteSpace=wrap;html=1;align=center;fontStyle=4;strokeWidth=1;" parent="1" vertex="1">
          <mxGeometry x="520" y="705" width="60" height="30" as="geometry" />
        </mxCell>
        <mxCell id="UxwvA4xGbJYqASf0uj5V-63" value="" style="endArrow=none;html=1;rounded=0;entryX=1;entryY=0.5;entryDx=0;entryDy=0;exitX=0.25;exitY=1;exitDx=0;exitDy=0;" parent="1" source="UxwvA4xGbJYqASf0uj5V-36" target="UxwvA4xGbJYqASf0uj5V-52" edge="1">
          <mxGeometry relative="1" as="geometry">
            <mxPoint x="470" y="530" as="sourcePoint" />
            <mxPoint x="630" y="530" as="targetPoint" />
          </mxGeometry>
        </mxCell>
        <mxCell id="UxwvA4xGbJYqASf0uj5V-65" value="" style="endArrow=none;html=1;rounded=0;entryX=0.5;entryY=0;entryDx=0;entryDy=0;exitX=0.5;exitY=1;exitDx=0;exitDy=0;" parent="1" source="UxwvA4xGbJYqASf0uj5V-36" target="UxwvA4xGbJYqASf0uj5V-60" edge="1">
          <mxGeometry relative="1" as="geometry">
            <mxPoint x="560" y="690" as="sourcePoint" />
            <mxPoint x="535" y="730" as="targetPoint" />
          </mxGeometry>
        </mxCell>
        <mxCell id="UxwvA4xGbJYqASf0uj5V-66" value="" style="endArrow=none;html=1;rounded=0;entryX=0;entryY=0.5;entryDx=0;entryDy=0;exitX=0.75;exitY=1;exitDx=0;exitDy=0;" parent="1" source="UxwvA4xGbJYqASf0uj5V-36" target="UxwvA4xGbJYqASf0uj5V-56" edge="1">
          <mxGeometry relative="1" as="geometry">
            <mxPoint x="560" y="690" as="sourcePoint" />
            <mxPoint x="600" y="730" as="targetPoint" />
          </mxGeometry>
        </mxCell>
        <mxCell id="UxwvA4xGbJYqASf0uj5V-67" value="email" style="ellipse;whiteSpace=wrap;html=1;align=center;strokeWidth=1;" parent="1" vertex="1">
          <mxGeometry x="445" y="240" width="60" height="30" as="geometry" />
        </mxCell>
        <mxCell id="UxwvA4xGbJYqASf0uj5V-68" value="username" style="ellipse;whiteSpace=wrap;html=1;align=center;strokeWidth=1;" parent="1" vertex="1">
          <mxGeometry x="400" y="200" width="80" height="30" as="geometry" />
        </mxCell>
        <mxCell id="UxwvA4xGbJYqASf0uj5V-69" value="id" style="ellipse;whiteSpace=wrap;html=1;align=center;fontStyle=4;strokeWidth=1;" parent="1" vertex="1">
          <mxGeometry x="495" y="200" width="40" height="25" as="geometry" />
        </mxCell>
        <mxCell id="UxwvA4xGbJYqASf0uj5V-70" value="state" style="ellipse;whiteSpace=wrap;html=1;align=center;strokeWidth=1;" parent="1" vertex="1">
          <mxGeometry x="490" y="155" width="85" height="35" as="geometry" />
        </mxCell>
        <mxCell id="UxwvA4xGbJYqASf0uj5V-72" value="region" style="rounded=1;arcSize=10;whiteSpace=wrap;html=1;align=center;strokeWidth=1;" parent="1" vertex="1">
          <mxGeometry x="754.91" y="52.5" width="60" height="40" as="geometry" />
        </mxCell>
        <mxCell id="UxwvA4xGbJYqASf0uj5V-73" value="" style="endArrow=none;html=1;rounded=0;exitX=1;exitY=0.5;exitDx=0;exitDy=0;entryX=0.5;entryY=0;entryDx=0;entryDy=0;" parent="1" source="UxwvA4xGbJYqASf0uj5V-67" target="UxwvA4xGbJYqASf0uj5V-37" edge="1">
          <mxGeometry relative="1" as="geometry">
            <mxPoint x="470" y="270" as="sourcePoint" />
            <mxPoint x="630" y="270" as="targetPoint" />
          </mxGeometry>
        </mxCell>
        <mxCell id="UxwvA4xGbJYqASf0uj5V-74" value="" style="endArrow=none;html=1;rounded=0;exitX=1;exitY=0.5;exitDx=0;exitDy=0;entryX=0.5;entryY=0;entryDx=0;entryDy=0;" parent="1" source="UxwvA4xGbJYqASf0uj5V-68" target="UxwvA4xGbJYqASf0uj5V-37" edge="1">
          <mxGeometry relative="1" as="geometry">
            <mxPoint x="515" y="265" as="sourcePoint" />
            <mxPoint x="540" y="280" as="targetPoint" />
          </mxGeometry>
        </mxCell>
        <mxCell id="UxwvA4xGbJYqASf0uj5V-75" value="" style="endArrow=none;html=1;rounded=0;exitX=0.5;exitY=1;exitDx=0;exitDy=0;entryX=0.5;entryY=0;entryDx=0;entryDy=0;" parent="1" source="UxwvA4xGbJYqASf0uj5V-69" target="UxwvA4xGbJYqASf0uj5V-37" edge="1">
          <mxGeometry relative="1" as="geometry">
            <mxPoint x="490" y="225" as="sourcePoint" />
            <mxPoint x="545" y="290" as="targetPoint" />
          </mxGeometry>
        </mxCell>
        <mxCell id="UxwvA4xGbJYqASf0uj5V-76" value="" style="endArrow=none;html=1;rounded=0;exitX=0.5;exitY=1;exitDx=0;exitDy=0;entryX=0.5;entryY=0;entryDx=0;entryDy=0;" parent="1" source="UxwvA4xGbJYqASf0uj5V-70" target="UxwvA4xGbJYqASf0uj5V-37" edge="1">
          <mxGeometry relative="1" as="geometry">
            <mxPoint x="520" y="225" as="sourcePoint" />
            <mxPoint x="560" y="290" as="targetPoint" />
          </mxGeometry>
        </mxCell>
        <mxCell id="UxwvA4xGbJYqASf0uj5V-85" value="" style="endArrow=none;html=1;rounded=0;exitX=1;exitY=0.5;exitDx=0;exitDy=0;entryX=0;entryY=0.5;entryDx=0;entryDy=0;" parent="1" source="n-J2rpFh8gboaBVfGq7o-7" target="UxwvA4xGbJYqASf0uj5V-72" edge="1">
          <mxGeometry relative="1" as="geometry">
            <mxPoint x="719.91" y="42.5" as="sourcePoint" />
            <mxPoint x="764.91" y="82.5" as="targetPoint" />
          </mxGeometry>
        </mxCell>
        <mxCell id="UxwvA4xGbJYqASf0uj5V-100" value="name" style="ellipse;whiteSpace=wrap;html=1;align=center;strokeWidth=1;" parent="1" vertex="1">
          <mxGeometry x="1257.5" y="300" width="60" height="30" as="geometry" />
        </mxCell>
        <mxCell id="UxwvA4xGbJYqASf0uj5V-101" value="id" style="ellipse;whiteSpace=wrap;html=1;align=center;fontStyle=4;strokeWidth=1;" parent="1" vertex="1">
          <mxGeometry x="1257.5" y="260" width="40" height="25" as="geometry" />
        </mxCell>
        <mxCell id="UxwvA4xGbJYqASf0uj5V-102" value="" style="endArrow=none;html=1;rounded=0;entryX=1;entryY=0.5;entryDx=0;entryDy=0;exitX=0;exitY=0.5;exitDx=0;exitDy=0;" parent="1" source="UxwvA4xGbJYqASf0uj5V-100" edge="1">
          <mxGeometry relative="1" as="geometry">
            <mxPoint x="827.5" y="305" as="sourcePoint" />
            <mxPoint x="1222.5" y="300" as="targetPoint" />
          </mxGeometry>
        </mxCell>
        <mxCell id="UxwvA4xGbJYqASf0uj5V-103" value="" style="endArrow=none;html=1;rounded=0;entryX=1;entryY=0.5;entryDx=0;entryDy=0;exitX=0;exitY=0.5;exitDx=0;exitDy=0;" parent="1" source="UxwvA4xGbJYqASf0uj5V-101" edge="1">
          <mxGeometry relative="1" as="geometry">
            <mxPoint x="1267.5" y="325" as="sourcePoint" />
            <mxPoint x="1222.5" y="300" as="targetPoint" />
          </mxGeometry>
        </mxCell>
        <mxCell id="UxwvA4xGbJYqASf0uj5V-105" value="have" style="shape=rhombus;perimeter=rhombusPerimeter;whiteSpace=wrap;html=1;align=center;strokeWidth=1;" parent="1" vertex="1">
          <mxGeometry x="1137.5" y="162.5" width="75" height="40" as="geometry" />
        </mxCell>
        <mxCell id="UxwvA4xGbJYqASf0uj5V-107" value="" style="endArrow=none;html=1;rounded=0;entryX=0.5;entryY=1;entryDx=0;entryDy=0;exitX=0.5;exitY=0;exitDx=0;exitDy=0;" parent="1" source="7KpUTXHC7Jx4lpWlZY0v-57" target="UxwvA4xGbJYqASf0uj5V-105" edge="1">
          <mxGeometry relative="1" as="geometry">
            <mxPoint x="1185" y="270" as="sourcePoint" />
            <mxPoint x="1180" y="235" as="targetPoint" />
          </mxGeometry>
        </mxCell>
        <mxCell id="UxwvA4xGbJYqASf0uj5V-108" value="1" style="resizable=0;html=1;align=right;verticalAlign=bottom;strokeWidth=1;" parent="UxwvA4xGbJYqASf0uj5V-107" connectable="0" vertex="1">
          <mxGeometry x="1" relative="1" as="geometry">
            <mxPoint x="-5" y="20" as="offset" />
          </mxGeometry>
        </mxCell>
        <mxCell id="UxwvA4xGbJYqASf0uj5V-110" value="" style="shape=link;html=1;rounded=0;entryX=0.5;entryY=0;entryDx=0;entryDy=0;exitX=0.5;exitY=1;exitDx=0;exitDy=0;" parent="1" target="UxwvA4xGbJYqASf0uj5V-105" edge="1">
          <mxGeometry relative="1" as="geometry">
            <mxPoint x="1175" y="132.5" as="sourcePoint" />
            <mxPoint x="990" y="272.5" as="targetPoint" />
          </mxGeometry>
        </mxCell>
        <mxCell id="UxwvA4xGbJYqASf0uj5V-111" value="N" style="resizable=0;html=1;align=right;verticalAlign=bottom;strokeWidth=1;" parent="UxwvA4xGbJYqASf0uj5V-110" connectable="0" vertex="1">
          <mxGeometry x="1" relative="1" as="geometry">
            <mxPoint x="-5" as="offset" />
          </mxGeometry>
        </mxCell>
        <mxCell id="UxwvA4xGbJYqASf0uj5V-113" value="sent_time" style="ellipse;whiteSpace=wrap;html=1;align=center;" parent="1" vertex="1">
          <mxGeometry x="1255" y="92.5" width="95" height="30" as="geometry" />
        </mxCell>
        <mxCell id="UxwvA4xGbJYqASf0uj5V-114" value="text" style="ellipse;whiteSpace=wrap;html=1;align=center;" parent="1" vertex="1">
          <mxGeometry x="1267.5" y="125" width="50" height="30" as="geometry" />
        </mxCell>
        <mxCell id="UxwvA4xGbJYqASf0uj5V-116" value="" style="endArrow=none;html=1;rounded=0;entryX=1;entryY=0.25;entryDx=0;entryDy=0;exitX=0;exitY=0.5;exitDx=0;exitDy=0;" parent="1" source="n-J2rpFh8gboaBVfGq7o-76" edge="1">
          <mxGeometry relative="1" as="geometry">
            <mxPoint x="1250" y="67.5" as="sourcePoint" />
            <mxPoint x="1225" y="102.5" as="targetPoint" />
          </mxGeometry>
        </mxCell>
        <mxCell id="UxwvA4xGbJYqASf0uj5V-117" value="" style="endArrow=none;html=1;rounded=0;entryX=1;entryY=0.5;entryDx=0;entryDy=0;exitX=0;exitY=0.5;exitDx=0;exitDy=0;" parent="1" source="UxwvA4xGbJYqASf0uj5V-113" edge="1">
          <mxGeometry relative="1" as="geometry">
            <mxPoint x="1250" y="77.5" as="sourcePoint" />
            <mxPoint x="1225" y="112.5" as="targetPoint" />
          </mxGeometry>
        </mxCell>
        <mxCell id="UxwvA4xGbJYqASf0uj5V-118" value="" style="endArrow=none;html=1;rounded=0;entryX=1;entryY=0.75;entryDx=0;entryDy=0;exitX=0;exitY=0.5;exitDx=0;exitDy=0;" parent="1" source="UxwvA4xGbJYqASf0uj5V-114" edge="1">
          <mxGeometry relative="1" as="geometry">
            <mxPoint x="1260" y="87.5" as="sourcePoint" />
            <mxPoint x="1225" y="122.5" as="targetPoint" />
          </mxGeometry>
        </mxCell>
        <mxCell id="UxwvA4xGbJYqASf0uj5V-121" value="" style="shape=link;html=1;rounded=0;exitX=1;exitY=1;exitDx=0;exitDy=0;" parent="1" edge="1">
          <mxGeometry relative="1" as="geometry">
            <mxPoint x="847.5" y="580" as="sourcePoint" />
            <mxPoint x="917.5" y="640" as="targetPoint" />
          </mxGeometry>
        </mxCell>
        <mxCell id="UxwvA4xGbJYqASf0uj5V-124" value="D" style="ellipse;whiteSpace=wrap;html=1;sketch=0;strokeWidth=1;" parent="1" vertex="1">
          <mxGeometry x="902.5" y="630" width="40" height="30" as="geometry" />
        </mxCell>
        <mxCell id="UxwvA4xGbJYqASf0uj5V-126" value="start_time" style="ellipse;whiteSpace=wrap;html=1;align=center;strokeWidth=1;" parent="1" vertex="1">
          <mxGeometry x="883.75" y="515" width="77.5" height="30" as="geometry" />
        </mxCell>
        <mxCell id="UxwvA4xGbJYqASf0uj5V-127" value="end_time" style="ellipse;whiteSpace=wrap;html=1;align=center;strokeWidth=1;" parent="1" vertex="1">
          <mxGeometry x="878.75" y="550" width="87.5" height="30" as="geometry" />
        </mxCell>
        <mxCell id="UxwvA4xGbJYqASf0uj5V-130" value="" style="endArrow=none;html=1;rounded=0;entryX=0;entryY=0.5;entryDx=0;entryDy=0;exitX=1;exitY=0.5;exitDx=0;exitDy=0;" parent="1" target="UxwvA4xGbJYqASf0uj5V-126" edge="1">
          <mxGeometry relative="1" as="geometry">
            <mxPoint x="847.5" y="550" as="sourcePoint" />
            <mxPoint x="897.5" y="497.5" as="targetPoint" />
          </mxGeometry>
        </mxCell>
        <mxCell id="UxwvA4xGbJYqASf0uj5V-131" value="" style="endArrow=none;html=1;rounded=0;entryX=0;entryY=0.5;entryDx=0;entryDy=0;exitX=1;exitY=0.75;exitDx=0;exitDy=0;" parent="1" target="UxwvA4xGbJYqASf0uj5V-127" edge="1">
          <mxGeometry relative="1" as="geometry">
            <mxPoint x="847.5" y="565" as="sourcePoint" />
            <mxPoint x="907.5" y="507.5" as="targetPoint" />
          </mxGeometry>
        </mxCell>
        <mxCell id="UxwvA4xGbJYqASf0uj5V-132" value="multi_player_match" style="whiteSpace=wrap;html=1;align=center;strokeWidth=1;" parent="1" vertex="1">
          <mxGeometry x="1047.5" y="591.25" width="120" height="40" as="geometry" />
        </mxCell>
        <mxCell id="UxwvA4xGbJYqASf0uj5V-133" value="single_player_match" style="whiteSpace=wrap;html=1;align=center;strokeWidth=1;" parent="1" vertex="1">
          <mxGeometry x="1047.5" y="670" width="130" height="40" as="geometry" />
        </mxCell>
        <mxCell id="UxwvA4xGbJYqASf0uj5V-135" value="difficulty" style="ellipse;whiteSpace=wrap;html=1;align=center;" parent="1" vertex="1">
          <mxGeometry x="1197.5" y="675" width="70" height="30" as="geometry" />
        </mxCell>
        <mxCell id="UxwvA4xGbJYqASf0uj5V-136" style="edgeStyle=orthogonalEdgeStyle;rounded=0;orthogonalLoop=1;jettySize=auto;html=1;exitX=0.5;exitY=1;exitDx=0;exitDy=0;" parent="1" source="UxwvA4xGbJYqASf0uj5V-135" target="UxwvA4xGbJYqASf0uj5V-135" edge="1">
          <mxGeometry relative="1" as="geometry" />
        </mxCell>
        <mxCell id="UxwvA4xGbJYqASf0uj5V-137" value="state" style="ellipse;whiteSpace=wrap;html=1;align=center;" parent="1" vertex="1">
          <mxGeometry x="1197.5" y="594.38" width="60" height="33.75" as="geometry" />
        </mxCell>
        <mxCell id="UxwvA4xGbJYqASf0uj5V-138" value="" style="endArrow=none;html=1;rounded=0;exitX=1;exitY=0.5;exitDx=0;exitDy=0;entryX=0;entryY=0.5;entryDx=0;entryDy=0;" parent="1" source="UxwvA4xGbJYqASf0uj5V-132" target="UxwvA4xGbJYqASf0uj5V-137" edge="1">
          <mxGeometry relative="1" as="geometry">
            <mxPoint x="807.5" y="500" as="sourcePoint" />
            <mxPoint x="967.5" y="500" as="targetPoint" />
          </mxGeometry>
        </mxCell>
        <mxCell id="UxwvA4xGbJYqASf0uj5V-139" value="" style="endArrow=none;html=1;rounded=0;exitX=1;exitY=0.5;exitDx=0;exitDy=0;entryX=0;entryY=0.5;entryDx=0;entryDy=0;" parent="1" source="UxwvA4xGbJYqASf0uj5V-133" target="UxwvA4xGbJYqASf0uj5V-135" edge="1">
          <mxGeometry relative="1" as="geometry">
            <mxPoint x="1157.5" y="621.25" as="sourcePoint" />
            <mxPoint x="1207.5" y="621.2550000000001" as="targetPoint" />
          </mxGeometry>
        </mxCell>
        <mxCell id="UxwvA4xGbJYqASf0uj5V-140" value="" style="endArrow=none;html=1;rounded=0;exitX=1;exitY=0.5;exitDx=0;exitDy=0;entryX=0;entryY=0.5;entryDx=0;entryDy=0;" parent="1" source="UxwvA4xGbJYqASf0uj5V-124" target="UxwvA4xGbJYqASf0uj5V-132" edge="1">
          <mxGeometry relative="1" as="geometry">
            <mxPoint x="807.5" y="500" as="sourcePoint" />
            <mxPoint x="967.5" y="500" as="targetPoint" />
          </mxGeometry>
        </mxCell>
        <mxCell id="UxwvA4xGbJYqASf0uj5V-141" value="" style="endArrow=none;html=1;rounded=0;entryX=0;entryY=0.5;entryDx=0;entryDy=0;startArrow=none;exitX=1;exitY=0.5;exitDx=0;exitDy=0;" parent="1" source="UxwvA4xGbJYqASf0uj5V-124" target="UxwvA4xGbJYqASf0uj5V-133" edge="1">
          <mxGeometry relative="1" as="geometry">
            <mxPoint x="1007.5" y="670" as="sourcePoint" />
            <mxPoint x="1057.5" y="621.25" as="targetPoint" />
          </mxGeometry>
        </mxCell>
        <mxCell id="UxwvA4xGbJYqASf0uj5V-142" value="" style="shape=requiredInterface;html=1;verticalLabelPosition=bottom;sketch=0;strokeWidth=1;" parent="1" vertex="1">
          <mxGeometry x="987.5" y="620" width="10" height="20" as="geometry" />
        </mxCell>
        <mxCell id="UxwvA4xGbJYqASf0uj5V-143" value="" style="shape=requiredInterface;html=1;verticalLabelPosition=bottom;sketch=0;strokeWidth=1;" parent="1" vertex="1">
          <mxGeometry x="987.5" y="655" width="10" height="20" as="geometry" />
        </mxCell>
        <mxCell id="qMQJAQUiqZQWxBR6LsD0-4" value="&lt;span style=&quot;border-bottom: 1px dotted&quot;&gt;match_number&lt;/span&gt;" style="ellipse;whiteSpace=wrap;html=1;align=center;" parent="1" vertex="1">
          <mxGeometry x="872.5" y="465" width="100" height="40" as="geometry" />
        </mxCell>
        <mxCell id="qMQJAQUiqZQWxBR6LsD0-5" value="" style="endArrow=none;html=1;rounded=0;entryX=0;entryY=0.5;entryDx=0;entryDy=0;" parent="1" target="qMQJAQUiqZQWxBR6LsD0-4" edge="1">
          <mxGeometry relative="1" as="geometry">
            <mxPoint x="847.5" y="550" as="sourcePoint" />
            <mxPoint x="882.5" y="473" as="targetPoint" />
          </mxGeometry>
        </mxCell>
        <mxCell id="qMQJAQUiqZQWxBR6LsD0-6" value="match_type" style="ellipse;whiteSpace=wrap;html=1;align=center;strokeWidth=1;" parent="1" vertex="1">
          <mxGeometry x="887.5" y="587.5" width="87.5" height="30" as="geometry" />
        </mxCell>
        <mxCell id="qMQJAQUiqZQWxBR6LsD0-7" value="" style="endArrow=none;html=1;rounded=0;entryX=0;entryY=0.5;entryDx=0;entryDy=0;exitX=1;exitY=0.75;exitDx=0;exitDy=0;" parent="1" target="qMQJAQUiqZQWxBR6LsD0-6" edge="1">
          <mxGeometry relative="1" as="geometry">
            <mxPoint x="847.5" y="565" as="sourcePoint" />
            <mxPoint x="888.5" y="575" as="targetPoint" />
          </mxGeometry>
        </mxCell>
        <mxCell id="qMQJAQUiqZQWxBR6LsD0-19" value="id" style="ellipse;whiteSpace=wrap;html=1;align=center;fontStyle=4;strokeWidth=1;" parent="1" vertex="1">
          <mxGeometry x="30" y="202.5" width="40" height="25" as="geometry" />
        </mxCell>
        <mxCell id="qMQJAQUiqZQWxBR6LsD0-20" value="" style="endArrow=none;html=1;rounded=0;exitX=0.5;exitY=1;exitDx=0;exitDy=0;entryX=0.5;entryY=0;entryDx=0;entryDy=0;" parent="1" source="qMQJAQUiqZQWxBR6LsD0-19" edge="1">
          <mxGeometry relative="1" as="geometry">
            <mxPoint x="490" y="410" as="sourcePoint" />
            <mxPoint x="120" y="250" as="targetPoint" />
          </mxGeometry>
        </mxCell>
        <mxCell id="qMQJAQUiqZQWxBR6LsD0-22" value="num_games_played" style="ellipse;whiteSpace=wrap;html=1;align=center;" parent="1" vertex="1">
          <mxGeometry x="60" y="170" width="120" height="40" as="geometry" />
        </mxCell>
        <mxCell id="qMQJAQUiqZQWxBR6LsD0-24" value="total_points" style="ellipse;whiteSpace=wrap;html=1;align=center;" parent="1" vertex="1">
          <mxGeometry x="170" y="150" width="90" height="30" as="geometry" />
        </mxCell>
        <mxCell id="qMQJAQUiqZQWxBR6LsD0-25" value="" style="endArrow=none;html=1;rounded=0;exitX=0.5;exitY=1;exitDx=0;exitDy=0;" parent="1" source="qMQJAQUiqZQWxBR6LsD0-22" edge="1">
          <mxGeometry relative="1" as="geometry">
            <mxPoint x="60" y="238" as="sourcePoint" />
            <mxPoint x="120" y="250" as="targetPoint" />
          </mxGeometry>
        </mxCell>
        <mxCell id="qMQJAQUiqZQWxBR6LsD0-26" value="" style="endArrow=none;html=1;rounded=0;exitX=0.5;exitY=1;exitDx=0;exitDy=0;entryX=0.5;entryY=0;entryDx=0;entryDy=0;" parent="1" source="qMQJAQUiqZQWxBR6LsD0-24" edge="1">
          <mxGeometry relative="1" as="geometry">
            <mxPoint x="70" y="248" as="sourcePoint" />
            <mxPoint x="120" y="250" as="targetPoint" />
          </mxGeometry>
        </mxCell>
        <mxCell id="qMQJAQUiqZQWxBR6LsD0-38" value="id" style="ellipse;whiteSpace=wrap;html=1;align=center;fontStyle=4;" parent="1" vertex="1">
          <mxGeometry x="265" y="855" width="65" height="25" as="geometry" />
        </mxCell>
        <mxCell id="qMQJAQUiqZQWxBR6LsD0-41" value="num_matches" style="ellipse;whiteSpace=wrap;html=1;align=center;" parent="1" vertex="1">
          <mxGeometry x="160" y="870" width="100" height="40" as="geometry" />
        </mxCell>
        <mxCell id="qMQJAQUiqZQWxBR6LsD0-42" value="total_points" style="ellipse;whiteSpace=wrap;html=1;align=center;" parent="1" vertex="1">
          <mxGeometry x="340" y="840" width="100" height="40" as="geometry" />
        </mxCell>
        <mxCell id="qMQJAQUiqZQWxBR6LsD0-44" value="" style="endArrow=none;html=1;rounded=0;exitX=0.5;exitY=1;exitDx=0;exitDy=0;entryX=0.5;entryY=0;entryDx=0;entryDy=0;" parent="1" target="qMQJAQUiqZQWxBR6LsD0-41" edge="1">
          <mxGeometry relative="1" as="geometry">
            <mxPoint x="302.5000000000002" y="810" as="sourcePoint" />
            <mxPoint x="223" y="840" as="targetPoint" />
          </mxGeometry>
        </mxCell>
        <mxCell id="qMQJAQUiqZQWxBR6LsD0-45" value="" style="endArrow=none;html=1;rounded=0;exitX=0.5;exitY=1;exitDx=0;exitDy=0;entryX=0.5;entryY=0;entryDx=0;entryDy=0;" parent="1" target="qMQJAQUiqZQWxBR6LsD0-38" edge="1">
          <mxGeometry relative="1" as="geometry">
            <mxPoint x="302.5000000000002" y="810" as="sourcePoint" />
            <mxPoint x="233" y="850" as="targetPoint" />
          </mxGeometry>
        </mxCell>
        <mxCell id="qMQJAQUiqZQWxBR6LsD0-46" value="" style="endArrow=none;html=1;rounded=0;exitX=0.5;exitY=1;exitDx=0;exitDy=0;entryX=0;entryY=0.5;entryDx=0;entryDy=0;" parent="1" target="qMQJAQUiqZQWxBR6LsD0-42" edge="1">
          <mxGeometry relative="1" as="geometry">
            <mxPoint x="302.5000000000002" y="810" as="sourcePoint" />
            <mxPoint x="243" y="860" as="targetPoint" />
          </mxGeometry>
        </mxCell>
        <mxCell id="qMQJAQUiqZQWxBR6LsD0-47" style="edgeStyle=orthogonalEdgeStyle;rounded=0;orthogonalLoop=1;jettySize=auto;html=1;exitX=0.5;exitY=1;exitDx=0;exitDy=0;" parent="1" source="qMQJAQUiqZQWxBR6LsD0-42" target="qMQJAQUiqZQWxBR6LsD0-42" edge="1">
          <mxGeometry relative="1" as="geometry" />
        </mxCell>
        <mxCell id="7KpUTXHC7Jx4lpWlZY0v-1" value="game_stats" style="whiteSpace=wrap;html=1;align=center;" parent="1" vertex="1">
          <mxGeometry x="250" y="770" width="100" height="40" as="geometry" />
        </mxCell>
        <mxCell id="7KpUTXHC7Jx4lpWlZY0v-6" value="have" style="shape=rhombus;perimeter=rhombusPerimeter;whiteSpace=wrap;html=1;align=center;" parent="1" vertex="1">
          <mxGeometry x="360" y="705" width="60" height="40" as="geometry" />
        </mxCell>
        <mxCell id="7KpUTXHC7Jx4lpWlZY0v-15" value="" style="resizable=0;html=1;align=right;verticalAlign=bottom;" parent="1" connectable="0" vertex="1">
          <mxGeometry x="390" y="770" as="geometry">
            <mxPoint x="475" y="-64" as="offset" />
          </mxGeometry>
        </mxCell>
        <mxCell id="7KpUTXHC7Jx4lpWlZY0v-16" value="" style="resizable=0;html=1;align=right;verticalAlign=bottom;" parent="1" connectable="0" vertex="1">
          <mxGeometry x="400" y="715" as="geometry" />
        </mxCell>
        <mxCell id="7KpUTXHC7Jx4lpWlZY0v-17" value="" style="resizable=0;html=1;align=right;verticalAlign=bottom;" parent="1" connectable="0" vertex="1">
          <mxGeometry x="380" y="581.25" as="geometry">
            <mxPoint x="416" y="140" as="offset" />
          </mxGeometry>
        </mxCell>
        <mxCell id="7KpUTXHC7Jx4lpWlZY0v-18" value="have" style="shape=rhombus;perimeter=rhombusPerimeter;whiteSpace=wrap;html=1;align=center;" parent="1" vertex="1">
          <mxGeometry x="997.5" y="157.5" width="60" height="40" as="geometry" />
        </mxCell>
        <mxCell id="7KpUTXHC7Jx4lpWlZY0v-19" value="" style="resizable=0;html=1;align=right;verticalAlign=bottom;strokeWidth=1;" parent="1" connectable="0" vertex="1">
          <mxGeometry x="1182.4997829416366" y="239.99853485604578" as="geometry">
            <mxPoint x="-166" y="-22" as="offset" />
          </mxGeometry>
        </mxCell>
        <mxCell id="7KpUTXHC7Jx4lpWlZY0v-30" value="player_badge" style="shape=rhombus;perimeter=rhombusPerimeter;whiteSpace=wrap;html=1;align=center;" parent="1" vertex="1">
          <mxGeometry x="325" y="360" width="110" height="50" as="geometry" />
        </mxCell>
        <mxCell id="7KpUTXHC7Jx4lpWlZY0v-31" value="" style="endArrow=none;html=1;rounded=0;exitX=0;exitY=0.5;exitDx=0;exitDy=0;entryX=0.5;entryY=0;entryDx=0;entryDy=0;" parent="1" source="UxwvA4xGbJYqASf0uj5V-37" target="7KpUTXHC7Jx4lpWlZY0v-30" edge="1">
          <mxGeometry relative="1" as="geometry">
            <mxPoint x="570" y="520" as="sourcePoint" />
            <mxPoint x="730" y="520" as="targetPoint" />
            <Array as="points">
              <mxPoint x="380" y="300" />
            </Array>
          </mxGeometry>
        </mxCell>
        <mxCell id="7KpUTXHC7Jx4lpWlZY0v-32" value="N" style="resizable=0;html=1;whiteSpace=wrap;align=right;verticalAlign=bottom;" parent="7KpUTXHC7Jx4lpWlZY0v-31" connectable="0" vertex="1">
          <mxGeometry x="1" relative="1" as="geometry" />
        </mxCell>
        <mxCell id="7KpUTXHC7Jx4lpWlZY0v-33" value="" style="endArrow=none;html=1;rounded=0;entryX=0.5;entryY=1;entryDx=0;entryDy=0;exitX=0.5;exitY=0;exitDx=0;exitDy=0;" parent="1" target="7KpUTXHC7Jx4lpWlZY0v-30" edge="1">
          <mxGeometry relative="1" as="geometry">
            <mxPoint x="380" y="495" as="sourcePoint" />
            <mxPoint x="730" y="520" as="targetPoint" />
          </mxGeometry>
        </mxCell>
        <mxCell id="7KpUTXHC7Jx4lpWlZY0v-34" value="N" style="resizable=0;html=1;whiteSpace=wrap;align=right;verticalAlign=bottom;" parent="7KpUTXHC7Jx4lpWlZY0v-33" connectable="0" vertex="1">
          <mxGeometry x="1" relative="1" as="geometry">
            <mxPoint y="15" as="offset" />
          </mxGeometry>
        </mxCell>
        <mxCell id="7KpUTXHC7Jx4lpWlZY0v-41" value="players_conversatation" style="shape=rhombus;perimeter=rhombusPerimeter;whiteSpace=wrap;html=1;align=center;" parent="1" vertex="1">
          <mxGeometry x="910" y="285" width="180" height="50" as="geometry" />
        </mxCell>
        <mxCell id="7KpUTXHC7Jx4lpWlZY0v-42" value="" style="endArrow=none;html=1;rounded=0;exitX=1;exitY=0.75;exitDx=0;exitDy=0;entryX=0;entryY=0.5;entryDx=0;entryDy=0;" parent="1" source="UxwvA4xGbJYqASf0uj5V-37" target="7KpUTXHC7Jx4lpWlZY0v-41" edge="1">
          <mxGeometry relative="1" as="geometry">
            <mxPoint x="570" y="410" as="sourcePoint" />
            <mxPoint x="730" y="410" as="targetPoint" />
          </mxGeometry>
        </mxCell>
        <mxCell id="7KpUTXHC7Jx4lpWlZY0v-43" value="N" style="resizable=0;html=1;whiteSpace=wrap;align=right;verticalAlign=bottom;" parent="7KpUTXHC7Jx4lpWlZY0v-42" connectable="0" vertex="1">
          <mxGeometry x="1" relative="1" as="geometry" />
        </mxCell>
        <mxCell id="7KpUTXHC7Jx4lpWlZY0v-44" value="" style="endArrow=none;html=1;rounded=0;entryX=1;entryY=0.5;entryDx=0;entryDy=0;exitX=0;exitY=0.75;exitDx=0;exitDy=0;" parent="1" source="7KpUTXHC7Jx4lpWlZY0v-57" target="7KpUTXHC7Jx4lpWlZY0v-41" edge="1">
          <mxGeometry relative="1" as="geometry">
            <mxPoint x="1135" y="315" as="sourcePoint" />
            <mxPoint x="730" y="410" as="targetPoint" />
          </mxGeometry>
        </mxCell>
        <mxCell id="7KpUTXHC7Jx4lpWlZY0v-45" value="N" style="resizable=0;html=1;whiteSpace=wrap;align=right;verticalAlign=bottom;" parent="7KpUTXHC7Jx4lpWlZY0v-44" connectable="0" vertex="1">
          <mxGeometry x="1" relative="1" as="geometry">
            <mxPoint x="10" as="offset" />
          </mxGeometry>
        </mxCell>
        <mxCell id="7KpUTXHC7Jx4lpWlZY0v-47" value="" style="endArrow=none;html=1;rounded=0;entryX=0.5;entryY=1;entryDx=0;entryDy=0;exitX=1;exitY=0.5;exitDx=0;exitDy=0;" parent="1" source="UxwvA4xGbJYqASf0uj5V-37" target="7KpUTXHC7Jx4lpWlZY0v-18" edge="1">
          <mxGeometry relative="1" as="geometry">
            <mxPoint x="590" y="330" as="sourcePoint" />
            <mxPoint x="730" y="410" as="targetPoint" />
            <Array as="points">
              <mxPoint x="880" y="300" />
            </Array>
          </mxGeometry>
        </mxCell>
        <mxCell id="7KpUTXHC7Jx4lpWlZY0v-48" value="1" style="resizable=0;html=1;whiteSpace=wrap;align=right;verticalAlign=bottom;" parent="7KpUTXHC7Jx4lpWlZY0v-47" connectable="0" vertex="1">
          <mxGeometry x="1" relative="1" as="geometry">
            <mxPoint y="20" as="offset" />
          </mxGeometry>
        </mxCell>
        <mxCell id="7KpUTXHC7Jx4lpWlZY0v-49" value="" style="endArrow=none;html=1;rounded=0;entryX=0.5;entryY=0;entryDx=0;entryDy=0;exitX=0;exitY=0.5;exitDx=0;exitDy=0;" parent="1" target="7KpUTXHC7Jx4lpWlZY0v-18" edge="1">
          <mxGeometry relative="1" as="geometry">
            <mxPoint x="1130" y="112.5" as="sourcePoint" />
            <mxPoint x="730" y="410" as="targetPoint" />
            <Array as="points">
              <mxPoint x="1028" y="113" />
            </Array>
          </mxGeometry>
        </mxCell>
        <mxCell id="7KpUTXHC7Jx4lpWlZY0v-50" value="N" style="resizable=0;html=1;whiteSpace=wrap;align=right;verticalAlign=bottom;" parent="7KpUTXHC7Jx4lpWlZY0v-49" connectable="0" vertex="1">
          <mxGeometry x="1" relative="1" as="geometry" />
        </mxCell>
        <mxCell id="7KpUTXHC7Jx4lpWlZY0v-55" value="" style="endArrow=none;html=1;rounded=0;entryX=0.5;entryY=0;entryDx=0;entryDy=0;exitX=0;exitY=1;exitDx=0;exitDy=0;" parent="1" source="UxwvA4xGbJYqASf0uj5V-36" target="7KpUTXHC7Jx4lpWlZY0v-6" edge="1">
          <mxGeometry relative="1" as="geometry">
            <mxPoint x="570" y="410" as="sourcePoint" />
            <mxPoint x="730" y="410" as="targetPoint" />
            <Array as="points">
              <mxPoint x="390" y="680" />
            </Array>
          </mxGeometry>
        </mxCell>
        <mxCell id="7KpUTXHC7Jx4lpWlZY0v-56" value="1" style="resizable=0;html=1;whiteSpace=wrap;align=right;verticalAlign=bottom;" parent="7KpUTXHC7Jx4lpWlZY0v-55" connectable="0" vertex="1">
          <mxGeometry x="1" relative="1" as="geometry" />
        </mxCell>
        <mxCell id="7KpUTXHC7Jx4lpWlZY0v-57" value="conversations" style="whiteSpace=wrap;html=1;align=center;" parent="1" vertex="1">
          <mxGeometry x="1125" y="280" width="100" height="40" as="geometry" />
        </mxCell>
        <mxCell id="7KpUTXHC7Jx4lpWlZY0v-58" value="player_stats" style="whiteSpace=wrap;html=1;align=center;" parent="1" vertex="1">
          <mxGeometry x="70" y="250" width="100" height="40" as="geometry" />
        </mxCell>
        <mxCell id="7KpUTXHC7Jx4lpWlZY0v-60" value="have" style="shape=rhombus;perimeter=rhombusPerimeter;whiteSpace=wrap;html=1;align=center;" parent="1" vertex="1">
          <mxGeometry x="290" y="260" width="60" height="40" as="geometry" />
        </mxCell>
        <mxCell id="7KpUTXHC7Jx4lpWlZY0v-63" value="" style="endArrow=none;html=1;rounded=0;entryX=1;entryY=0.5;entryDx=0;entryDy=0;exitX=0;exitY=0;exitDx=0;exitDy=0;" parent="1" source="UxwvA4xGbJYqASf0uj5V-37" target="7KpUTXHC7Jx4lpWlZY0v-60" edge="1">
          <mxGeometry relative="1" as="geometry">
            <mxPoint x="560" y="400" as="sourcePoint" />
            <mxPoint x="720" y="400" as="targetPoint" />
          </mxGeometry>
        </mxCell>
        <mxCell id="7KpUTXHC7Jx4lpWlZY0v-64" value="1" style="resizable=0;html=1;whiteSpace=wrap;align=right;verticalAlign=bottom;" parent="7KpUTXHC7Jx4lpWlZY0v-63" connectable="0" vertex="1">
          <mxGeometry x="1" relative="1" as="geometry">
            <mxPoint x="10" as="offset" />
          </mxGeometry>
        </mxCell>
        <mxCell id="7KpUTXHC7Jx4lpWlZY0v-66" value="player_purchase" style="shape=rhombus;perimeter=rhombusPerimeter;whiteSpace=wrap;html=1;align=center;" parent="1" vertex="1">
          <mxGeometry x="488.75" y="480" width="122.5" height="40" as="geometry" />
        </mxCell>
        <mxCell id="7KpUTXHC7Jx4lpWlZY0v-73" value="location" style="shape=rhombus;perimeter=rhombusPerimeter;whiteSpace=wrap;html=1;align=center;" parent="1" vertex="1">
          <mxGeometry x="600" y="180" width="60" height="40" as="geometry" />
        </mxCell>
        <mxCell id="7KpUTXHC7Jx4lpWlZY0v-74" value="" style="endArrow=none;html=1;rounded=0;entryX=0.5;entryY=0;entryDx=0;entryDy=0;exitX=0;exitY=1;exitDx=0;exitDy=0;" parent="1" source="UxwvA4xGbJYqASf0uj5V-72" target="7KpUTXHC7Jx4lpWlZY0v-73" edge="1">
          <mxGeometry relative="1" as="geometry">
            <mxPoint x="750" y="90" as="sourcePoint" />
            <mxPoint x="729.91" y="132.5" as="targetPoint" />
            <Array as="points">
              <mxPoint x="630" y="93" />
            </Array>
          </mxGeometry>
        </mxCell>
        <mxCell id="7KpUTXHC7Jx4lpWlZY0v-75" value="1" style="resizable=0;html=1;whiteSpace=wrap;align=right;verticalAlign=bottom;" parent="7KpUTXHC7Jx4lpWlZY0v-74" connectable="0" vertex="1">
          <mxGeometry x="1" relative="1" as="geometry">
            <mxPoint as="offset" />
          </mxGeometry>
        </mxCell>
        <mxCell id="7KpUTXHC7Jx4lpWlZY0v-76" value="" style="endArrow=none;html=1;rounded=0;entryX=0.5;entryY=1;entryDx=0;entryDy=0;exitX=0.75;exitY=0;exitDx=0;exitDy=0;" parent="1" source="UxwvA4xGbJYqASf0uj5V-37" target="7KpUTXHC7Jx4lpWlZY0v-73" edge="1">
          <mxGeometry relative="1" as="geometry">
            <mxPoint x="560" y="400" as="sourcePoint" />
            <mxPoint x="720" y="400" as="targetPoint" />
            <Array as="points">
              <mxPoint x="630" y="250" />
            </Array>
          </mxGeometry>
        </mxCell>
        <mxCell id="7KpUTXHC7Jx4lpWlZY0v-77" value="N" style="resizable=0;html=1;whiteSpace=wrap;align=right;verticalAlign=bottom;" parent="7KpUTXHC7Jx4lpWlZY0v-76" connectable="0" vertex="1">
          <mxGeometry x="1" relative="1" as="geometry">
            <mxPoint y="20" as="offset" />
          </mxGeometry>
        </mxCell>
        <mxCell id="n-J2rpFh8gboaBVfGq7o-5" value="" style="endArrow=none;html=1;rounded=0;entryX=0.5;entryY=0;entryDx=0;entryDy=0;" parent="1" target="7KpUTXHC7Jx4lpWlZY0v-66" edge="1">
          <mxGeometry relative="1" as="geometry">
            <mxPoint x="550" y="320" as="sourcePoint" />
            <mxPoint x="760" y="400" as="targetPoint" />
          </mxGeometry>
        </mxCell>
        <mxCell id="n-J2rpFh8gboaBVfGq7o-6" value="N" style="resizable=0;html=1;whiteSpace=wrap;align=right;verticalAlign=bottom;" parent="n-J2rpFh8gboaBVfGq7o-5" connectable="0" vertex="1">
          <mxGeometry x="1" relative="1" as="geometry" />
        </mxCell>
        <mxCell id="n-J2rpFh8gboaBVfGq7o-7" value="name" style="ellipse;whiteSpace=wrap;html=1;align=center;fontStyle=4;" parent="1" vertex="1">
          <mxGeometry x="660" y="22.5" width="50" height="36.25" as="geometry" />
        </mxCell>
        <mxCell id="n-J2rpFh8gboaBVfGq7o-8" value="have&lt;br&gt;" style="shape=rhombus;double=1;perimeter=rhombusPerimeter;whiteSpace=wrap;html=1;align=center;" parent="1" vertex="1">
          <mxGeometry x="350" y="566" width="60" height="37.5" as="geometry" />
        </mxCell>
        <mxCell id="n-J2rpFh8gboaBVfGq7o-9" value="" style="shape=link;html=1;rounded=0;entryX=0.5;entryY=0;entryDx=0;entryDy=0;exitX=0.5;exitY=1;exitDx=0;exitDy=0;" parent="1" source="n-J2rpFh8gboaBVfGq7o-11" target="n-J2rpFh8gboaBVfGq7o-8" edge="1">
          <mxGeometry relative="1" as="geometry">
            <mxPoint x="380" y="535" as="sourcePoint" />
            <mxPoint x="760" y="390" as="targetPoint" />
          </mxGeometry>
        </mxCell>
        <mxCell id="n-J2rpFh8gboaBVfGq7o-10" value="N" style="resizable=0;html=1;whiteSpace=wrap;align=right;verticalAlign=bottom;" parent="n-J2rpFh8gboaBVfGq7o-9" connectable="0" vertex="1">
          <mxGeometry x="1" relative="1" as="geometry">
            <mxPoint y="4" as="offset" />
          </mxGeometry>
        </mxCell>
        <mxCell id="n-J2rpFh8gboaBVfGq7o-11" value="badges" style="shape=ext;margin=3;double=1;whiteSpace=wrap;html=1;align=center;" parent="1" vertex="1">
          <mxGeometry x="330" y="490" width="100" height="40" as="geometry" />
        </mxCell>
        <mxCell id="n-J2rpFh8gboaBVfGq7o-12" value="matches&lt;br&gt;" style="shape=ext;margin=3;double=1;whiteSpace=wrap;html=1;align=center;" parent="1" vertex="1">
          <mxGeometry x="747.5" y="540" width="100" height="40" as="geometry" />
        </mxCell>
        <mxCell id="n-J2rpFh8gboaBVfGq7o-13" value="price" style="ellipse;whiteSpace=wrap;html=1;align=center;" parent="1" vertex="1">
          <mxGeometry x="447.5" y="510" width="50" height="30" as="geometry" />
        </mxCell>
        <mxCell id="n-J2rpFh8gboaBVfGq7o-14" value="" style="endArrow=none;html=1;rounded=0;entryX=1.02;entryY=0.3;entryDx=0;entryDy=0;exitX=0.167;exitY=0.725;exitDx=0;exitDy=0;exitPerimeter=0;entryPerimeter=0;" parent="1" source="7KpUTXHC7Jx4lpWlZY0v-66" edge="1">
          <mxGeometry relative="1" as="geometry">
            <mxPoint x="536.25" y="690" as="sourcePoint" />
            <mxPoint x="489.75" y="519" as="targetPoint" />
          </mxGeometry>
        </mxCell>
        <mxCell id="n-J2rpFh8gboaBVfGq7o-22" value="have&lt;br&gt;" style="shape=rhombus;double=1;perimeter=rhombusPerimeter;whiteSpace=wrap;html=1;align=center;" parent="1" vertex="1">
          <mxGeometry x="719.91" y="641.25" width="60" height="37.5" as="geometry" />
        </mxCell>
        <mxCell id="n-J2rpFh8gboaBVfGq7o-23" value="" style="shape=link;html=1;rounded=0;exitX=0.5;exitY=1;exitDx=0;exitDy=0;entryX=1;entryY=0.5;entryDx=0;entryDy=0;" parent="1" source="n-J2rpFh8gboaBVfGq7o-12" target="n-J2rpFh8gboaBVfGq7o-22" edge="1">
          <mxGeometry relative="1" as="geometry">
            <mxPoint x="580" y="660" as="sourcePoint" />
            <mxPoint x="680" y="659" as="targetPoint" />
            <Array as="points">
              <mxPoint x="798" y="660" />
            </Array>
          </mxGeometry>
        </mxCell>
        <mxCell id="n-J2rpFh8gboaBVfGq7o-24" value="N" style="resizable=0;html=1;whiteSpace=wrap;align=right;verticalAlign=bottom;" parent="n-J2rpFh8gboaBVfGq7o-23" connectable="0" vertex="1">
          <mxGeometry x="1" relative="1" as="geometry">
            <mxPoint x="10" as="offset" />
          </mxGeometry>
        </mxCell>
        <mxCell id="n-J2rpFh8gboaBVfGq7o-25" value="" style="endArrow=none;html=1;rounded=0;entryX=0;entryY=0.5;entryDx=0;entryDy=0;exitX=1;exitY=0.5;exitDx=0;exitDy=0;" parent="1" source="UxwvA4xGbJYqASf0uj5V-36" target="n-J2rpFh8gboaBVfGq7o-22" edge="1">
          <mxGeometry relative="1" as="geometry">
            <mxPoint x="600" y="380" as="sourcePoint" />
            <mxPoint x="760" y="380" as="targetPoint" />
          </mxGeometry>
        </mxCell>
        <mxCell id="n-J2rpFh8gboaBVfGq7o-26" value="1" style="resizable=0;html=1;whiteSpace=wrap;align=right;verticalAlign=bottom;" parent="n-J2rpFh8gboaBVfGq7o-25" connectable="0" vertex="1">
          <mxGeometry x="1" relative="1" as="geometry" />
        </mxCell>
        <mxCell id="n-J2rpFh8gboaBVfGq7o-36" value="location" style="shape=rhombus;perimeter=rhombusPerimeter;whiteSpace=wrap;html=1;align=center;" parent="1" vertex="1">
          <mxGeometry x="764" y="360" width="67" height="40" as="geometry" />
        </mxCell>
        <mxCell id="n-J2rpFh8gboaBVfGq7o-37" value="" style="endArrow=none;html=1;rounded=0;entryX=0.5;entryY=0;entryDx=0;entryDy=0;exitX=0.75;exitY=1;exitDx=0;exitDy=0;" parent="1" source="UxwvA4xGbJYqASf0uj5V-72" target="n-J2rpFh8gboaBVfGq7o-36" edge="1">
          <mxGeometry relative="1" as="geometry">
            <mxPoint x="600" y="380" as="sourcePoint" />
            <mxPoint x="760" y="380" as="targetPoint" />
            <Array as="points" />
          </mxGeometry>
        </mxCell>
        <mxCell id="n-J2rpFh8gboaBVfGq7o-38" value="1" style="resizable=0;html=1;whiteSpace=wrap;align=right;verticalAlign=bottom;" parent="n-J2rpFh8gboaBVfGq7o-37" connectable="0" vertex="1">
          <mxGeometry x="1" relative="1" as="geometry" />
        </mxCell>
        <mxCell id="n-J2rpFh8gboaBVfGq7o-39" value="" style="endArrow=none;html=1;rounded=0;entryX=0.5;entryY=1;entryDx=0;entryDy=0;exitX=0.5;exitY=0;exitDx=0;exitDy=0;" parent="1" source="n-J2rpFh8gboaBVfGq7o-12" target="n-J2rpFh8gboaBVfGq7o-36" edge="1">
          <mxGeometry relative="1" as="geometry">
            <mxPoint x="600" y="380" as="sourcePoint" />
            <mxPoint x="760" y="380" as="targetPoint" />
          </mxGeometry>
        </mxCell>
        <mxCell id="n-J2rpFh8gboaBVfGq7o-40" value="N" style="resizable=0;html=1;whiteSpace=wrap;align=right;verticalAlign=bottom;" parent="n-J2rpFh8gboaBVfGq7o-39" connectable="0" vertex="1">
          <mxGeometry x="1" relative="1" as="geometry">
            <mxPoint y="20" as="offset" />
          </mxGeometry>
        </mxCell>
        <mxCell id="n-J2rpFh8gboaBVfGq7o-43" value="plays_multi" style="shape=rhombus;perimeter=rhombusPerimeter;whiteSpace=wrap;html=1;align=center;" parent="1" vertex="1">
          <mxGeometry x="1061.25" y="460" width="92.5" height="50" as="geometry" />
        </mxCell>
        <mxCell id="n-J2rpFh8gboaBVfGq7o-46" value="" style="endArrow=none;html=1;rounded=0;entryX=0.5;entryY=0;entryDx=0;entryDy=0;exitX=0.75;exitY=1;exitDx=0;exitDy=0;" parent="1" source="UxwvA4xGbJYqASf0uj5V-37" target="n-J2rpFh8gboaBVfGq7o-43" edge="1">
          <mxGeometry relative="1" as="geometry">
            <mxPoint x="600" y="380" as="sourcePoint" />
            <mxPoint x="760" y="380" as="targetPoint" />
            <Array as="points">
              <mxPoint x="565" y="340" />
              <mxPoint x="1108" y="350" />
            </Array>
          </mxGeometry>
        </mxCell>
        <mxCell id="n-J2rpFh8gboaBVfGq7o-47" value="N" style="resizable=0;html=1;whiteSpace=wrap;align=right;verticalAlign=bottom;" parent="n-J2rpFh8gboaBVfGq7o-46" connectable="0" vertex="1">
          <mxGeometry x="1" relative="1" as="geometry" />
        </mxCell>
        <mxCell id="n-J2rpFh8gboaBVfGq7o-50" value="" style="endArrow=none;html=1;rounded=0;exitX=0.617;exitY=0.975;exitDx=0;exitDy=0;exitPerimeter=0;" parent="1" source="UxwvA4xGbJYqASf0uj5V-37" target="n-J2rpFh8gboaBVfGq7o-52" edge="1">
          <mxGeometry relative="1" as="geometry">
            <mxPoint x="600" y="380" as="sourcePoint" />
            <mxPoint x="900" y="760" as="targetPoint" />
            <Array as="points">
              <mxPoint x="560" y="380" />
              <mxPoint x="600" y="450" />
              <mxPoint x="720" y="760" />
            </Array>
          </mxGeometry>
        </mxCell>
        <mxCell id="n-J2rpFh8gboaBVfGq7o-51" value="1" style="resizable=0;html=1;whiteSpace=wrap;align=right;verticalAlign=bottom;" parent="n-J2rpFh8gboaBVfGq7o-50" connectable="0" vertex="1">
          <mxGeometry x="1" relative="1" as="geometry">
            <mxPoint x="-4" as="offset" />
          </mxGeometry>
        </mxCell>
        <mxCell id="n-J2rpFh8gboaBVfGq7o-52" value="plays_single" style="shape=rhombus;perimeter=rhombusPerimeter;whiteSpace=wrap;html=1;align=center;" parent="1" vertex="1">
          <mxGeometry x="883.75" y="735" width="96.25" height="55" as="geometry" />
        </mxCell>
        <mxCell id="n-J2rpFh8gboaBVfGq7o-55" value="messages" style="shape=ext;margin=3;double=1;whiteSpace=wrap;html=1;align=center;" parent="1" vertex="1">
          <mxGeometry x="1125" y="92.5" width="100" height="40" as="geometry" />
        </mxCell>
        <mxCell id="n-J2rpFh8gboaBVfGq7o-62" value="" style="endArrow=none;html=1;rounded=0;exitX=1;exitY=0.75;exitDx=0;exitDy=0;entryX=0;entryY=0.5;entryDx=0;entryDy=0;" parent="1" source="7KpUTXHC7Jx4lpWlZY0v-58" target="7KpUTXHC7Jx4lpWlZY0v-60" edge="1">
          <mxGeometry relative="1" as="geometry">
            <mxPoint x="600" y="510" as="sourcePoint" />
            <mxPoint x="760" y="510" as="targetPoint" />
          </mxGeometry>
        </mxCell>
        <mxCell id="n-J2rpFh8gboaBVfGq7o-63" value="1" style="resizable=0;html=1;whiteSpace=wrap;align=right;verticalAlign=bottom;" parent="n-J2rpFh8gboaBVfGq7o-62" connectable="0" vertex="1">
          <mxGeometry x="1" relative="1" as="geometry" />
        </mxCell>
        <mxCell id="n-J2rpFh8gboaBVfGq7o-64" value="" style="endArrow=none;html=1;rounded=0;entryX=0.5;entryY=1;entryDx=0;entryDy=0;exitX=1;exitY=0.5;exitDx=0;exitDy=0;" parent="1" source="7KpUTXHC7Jx4lpWlZY0v-1" target="7KpUTXHC7Jx4lpWlZY0v-6" edge="1">
          <mxGeometry relative="1" as="geometry">
            <mxPoint x="600" y="510" as="sourcePoint" />
            <mxPoint x="760" y="510" as="targetPoint" />
            <Array as="points">
              <mxPoint x="390" y="790" />
            </Array>
          </mxGeometry>
        </mxCell>
        <mxCell id="n-J2rpFh8gboaBVfGq7o-65" value="1" style="resizable=0;html=1;whiteSpace=wrap;align=right;verticalAlign=bottom;" parent="n-J2rpFh8gboaBVfGq7o-64" connectable="0" vertex="1">
          <mxGeometry x="1" relative="1" as="geometry">
            <mxPoint y="15" as="offset" />
          </mxGeometry>
        </mxCell>
        <mxCell id="n-J2rpFh8gboaBVfGq7o-66" value="friend" style="shape=rhombus;perimeter=rhombusPerimeter;whiteSpace=wrap;html=1;align=center;" parent="1" vertex="1">
          <mxGeometry x="687.5" y="195" width="60" height="40" as="geometry" />
        </mxCell>
        <mxCell id="n-J2rpFh8gboaBVfGq7o-67" value="" style="endArrow=none;html=1;rounded=0;exitX=1;exitY=0.25;exitDx=0;exitDy=0;" parent="1" source="UxwvA4xGbJYqASf0uj5V-37" edge="1">
          <mxGeometry relative="1" as="geometry">
            <mxPoint x="600" y="410" as="sourcePoint" />
            <mxPoint x="720" y="260" as="targetPoint" />
            <Array as="points">
              <mxPoint x="720" y="290" />
            </Array>
          </mxGeometry>
        </mxCell>
        <mxCell id="n-J2rpFh8gboaBVfGq7o-68" value="" style="endArrow=none;html=1;rounded=0;entryX=1;entryY=0.5;entryDx=0;entryDy=0;" parent="1" target="n-J2rpFh8gboaBVfGq7o-66" edge="1">
          <mxGeometry relative="1" as="geometry">
            <mxPoint x="720" y="260" as="sourcePoint" />
            <mxPoint x="760" y="410" as="targetPoint" />
            <Array as="points">
              <mxPoint x="748" y="260" />
            </Array>
          </mxGeometry>
        </mxCell>
        <mxCell id="n-J2rpFh8gboaBVfGq7o-70" value="" style="endArrow=none;html=1;rounded=0;entryX=0;entryY=0.5;entryDx=0;entryDy=0;" parent="1" target="n-J2rpFh8gboaBVfGq7o-66" edge="1">
          <mxGeometry relative="1" as="geometry">
            <mxPoint x="720" y="260" as="sourcePoint" />
            <mxPoint x="760" y="410" as="targetPoint" />
            <Array as="points">
              <mxPoint x="690" y="260" />
            </Array>
          </mxGeometry>
        </mxCell>
        <mxCell id="n-J2rpFh8gboaBVfGq7o-71" value="N" style="resizable=0;html=1;whiteSpace=wrap;align=right;verticalAlign=bottom;" parent="n-J2rpFh8gboaBVfGq7o-70" connectable="0" vertex="1">
          <mxGeometry x="1" relative="1" as="geometry" />
        </mxCell>
        <mxCell id="n-J2rpFh8gboaBVfGq7o-72" value="&lt;span style=&quot;border-bottom: 1px dotted&quot;&gt;name&lt;/span&gt;" style="ellipse;whiteSpace=wrap;html=1;align=center;" parent="1" vertex="1">
          <mxGeometry x="210" y="450" width="82.5" height="30" as="geometry" />
        </mxCell>
        <mxCell id="n-J2rpFh8gboaBVfGq7o-73" value="" style="endArrow=none;html=1;rounded=0;entryX=0.5;entryY=1;entryDx=0;entryDy=0;exitX=0;exitY=0.5;exitDx=0;exitDy=0;" parent="1" source="UxwvA4xGbJYqASf0uj5V-36" target="n-J2rpFh8gboaBVfGq7o-8" edge="1">
          <mxGeometry relative="1" as="geometry">
            <mxPoint x="600" y="510" as="sourcePoint" />
            <mxPoint x="760" y="510" as="targetPoint" />
            <Array as="points">
              <mxPoint x="380" y="660" />
            </Array>
          </mxGeometry>
        </mxCell>
        <mxCell id="n-J2rpFh8gboaBVfGq7o-74" value="1" style="resizable=0;html=1;whiteSpace=wrap;align=right;verticalAlign=bottom;" parent="n-J2rpFh8gboaBVfGq7o-73" connectable="0" vertex="1">
          <mxGeometry x="1" relative="1" as="geometry">
            <mxPoint y="17" as="offset" />
          </mxGeometry>
        </mxCell>
        <mxCell id="n-J2rpFh8gboaBVfGq7o-76" value="&lt;span style=&quot;border-bottom: 1px dotted&quot;&gt;message_number&lt;/span&gt;" style="ellipse;whiteSpace=wrap;html=1;align=center;" parent="1" vertex="1">
          <mxGeometry x="1247.5" y="40" width="100" height="40" as="geometry" />
        </mxCell>
        <mxCell id="n-J2rpFh8gboaBVfGq7o-77" value="" style="endArrow=none;html=1;rounded=0;entryX=1;entryY=0.5;entryDx=0;entryDy=0;exitX=0.5;exitY=1;exitDx=0;exitDy=0;" parent="1" source="UxwvA4xGbJYqASf0uj5V-133" target="n-J2rpFh8gboaBVfGq7o-52" edge="1">
          <mxGeometry relative="1" as="geometry">
            <mxPoint x="690" y="420" as="sourcePoint" />
            <mxPoint x="850" y="420" as="targetPoint" />
            <Array as="points">
              <mxPoint x="1113" y="760" />
            </Array>
          </mxGeometry>
        </mxCell>
        <mxCell id="n-J2rpFh8gboaBVfGq7o-78" value="N" style="resizable=0;html=1;whiteSpace=wrap;align=right;verticalAlign=bottom;" parent="n-J2rpFh8gboaBVfGq7o-77" connectable="0" vertex="1">
          <mxGeometry x="1" relative="1" as="geometry">
            <mxPoint x="13" as="offset" />
          </mxGeometry>
        </mxCell>
        <mxCell id="n-J2rpFh8gboaBVfGq7o-80" value="" style="endArrow=none;html=1;rounded=0;entryX=0.5;entryY=1;entryDx=0;entryDy=0;exitX=0.5;exitY=0;exitDx=0;exitDy=0;" parent="1" source="UxwvA4xGbJYqASf0uj5V-132" target="n-J2rpFh8gboaBVfGq7o-43" edge="1">
          <mxGeometry relative="1" as="geometry">
            <mxPoint x="690" y="420" as="sourcePoint" />
            <mxPoint x="850" y="420" as="targetPoint" />
          </mxGeometry>
        </mxCell>
        <mxCell id="n-J2rpFh8gboaBVfGq7o-81" value="N" style="resizable=0;html=1;whiteSpace=wrap;align=right;verticalAlign=bottom;" parent="n-J2rpFh8gboaBVfGq7o-80" connectable="0" vertex="1">
          <mxGeometry x="1" relative="1" as="geometry">
            <mxPoint y="15" as="offset" />
          </mxGeometry>
        </mxCell>
        <mxCell id="n-J2rpFh8gboaBVfGq7o-82" value="points" style="ellipse;whiteSpace=wrap;html=1;align=center;" parent="1" vertex="1">
          <mxGeometry x="1167.5" y="469.51" width="62.5" height="40.49" as="geometry" />
        </mxCell>
        <mxCell id="n-J2rpFh8gboaBVfGq7o-83" value="" style="endArrow=none;html=1;rounded=0;entryX=0;entryY=0.5;entryDx=0;entryDy=0;" parent="1" target="n-J2rpFh8gboaBVfGq7o-82" edge="1">
          <mxGeometry relative="1" as="geometry">
            <mxPoint x="1140" y="490" as="sourcePoint" />
            <mxPoint x="850" y="420" as="targetPoint" />
          </mxGeometry>
        </mxCell>
        <mxCell id="n-J2rpFh8gboaBVfGq7o-84" value="points" style="ellipse;whiteSpace=wrap;html=1;align=center;" parent="1" vertex="1">
          <mxGeometry x="891.88" y="810" width="78.75" height="35" as="geometry" />
        </mxCell>
        <mxCell id="n-J2rpFh8gboaBVfGq7o-85" value="" style="endArrow=none;html=1;rounded=0;entryX=0.5;entryY=1;entryDx=0;entryDy=0;exitX=0.5;exitY=0;exitDx=0;exitDy=0;" parent="1" source="n-J2rpFh8gboaBVfGq7o-84" target="n-J2rpFh8gboaBVfGq7o-52" edge="1">
          <mxGeometry relative="1" as="geometry">
            <mxPoint x="690" y="420" as="sourcePoint" />
            <mxPoint x="850" y="420" as="targetPoint" />
          </mxGeometry>
        </mxCell>
        <mxCell id="n-J2rpFh8gboaBVfGq7o-86" value="N" style="resizable=0;html=1;whiteSpace=wrap;align=right;verticalAlign=bottom;" parent="1" connectable="0" vertex="1">
          <mxGeometry x="687.5023391235272" y="227.5021042234915" as="geometry">
            <mxPoint x="66" y="-13" as="offset" />
          </mxGeometry>
        </mxCell>
        <mxCell id="n-J2rpFh8gboaBVfGq7o-87" value="" style="endArrow=none;html=1;rounded=0;entryX=0.5;entryY=1;entryDx=0;entryDy=0;exitX=0.5;exitY=0;exitDx=0;exitDy=0;" parent="1" source="UxwvA4xGbJYqASf0uj5V-36" target="7KpUTXHC7Jx4lpWlZY0v-66" edge="1">
          <mxGeometry relative="1" as="geometry">
            <mxPoint x="560" y="330" as="sourcePoint" />
            <mxPoint x="560" y="490" as="targetPoint" />
          </mxGeometry>
        </mxCell>
        <mxCell id="n-J2rpFh8gboaBVfGq7o-88" value="N" style="resizable=0;html=1;whiteSpace=wrap;align=right;verticalAlign=bottom;" parent="n-J2rpFh8gboaBVfGq7o-87" connectable="0" vertex="1">
          <mxGeometry x="1" relative="1" as="geometry">
            <mxPoint y="20" as="offset" />
          </mxGeometry>
        </mxCell>
      </root>
    </mxGraphModel>
  </diagram>
</mxfile>
